<svg width="24" height="24" viewBox="0 0 24 24" fill="none" xmlns="http://www.w3.org/2000/svg">
<mask id="mask0_269_1580" style="mask-type:alpha" maskUnits="userSpaceOnUse" x="0" y="0" width="24" height="24">
<rect width="24" height="24" fill="#D9D9D9"/>
</mask>
<g mask="url(#mask0_269_1580)">
<path d="M11.0002 13.375H13.0002V6.62495H11.0002V13.375ZM12.0002 16C12.2835 16 12.521 15.9041 12.7127 15.7125C12.9044 15.5208 13.0002 15.2833 13.0002 15C13.0002 14.7166 12.9044 14.4791 12.7127 14.2875C12.521 14.0958 12.2835 14 12.0002 14C11.7169 14 11.4794 14.0958 11.2877 14.2875C11.096 14.4791 11.0002 14.7166 11.0002 15C11.0002 15.2833 11.096 15.5208 11.2877 15.7125C11.4794 15.9041 11.7169 16 12.0002 16ZM12.0002 22.8L1.2002 12L12.0002 1.19995L22.8002 12L12.0002 22.8ZM12.0002 20L20.0002 12L12.0002 3.99995L4.0002 12L12.0002 20Z" fill="#1CEAC5"/>
</g>
</svg>
