<svg width="800" height="288" viewBox="0 0 800 288" fill="none" xmlns="http://www.w3.org/2000/svg">
<path opacity="0.69" d="M636.71 256.506H162.221C157.699 256.506 154 252.906 154 248.506C154 244.106 157.699 240.506 162.221 240.506H636.779C641.301 240.506 645 244.106 645 248.506C644.931 252.906 641.301 256.506 636.71 256.506Z" fill="#23273D"/>
<path d="M511.29 105.054H492.039V102.177C492.039 100.464 493.409 99.0942 495.122 99.0942H508.139C509.851 99.0942 511.221 100.464 511.221 102.177V105.054H511.29Z" fill="#96628A"/>
<path d="M509.302 99.0259H507.179C508.275 99.0259 509.165 99.7795 509.165 100.739V104.986H511.289V100.739C511.289 99.7795 510.399 99.0259 509.302 99.0259Z" fill="#84517A"/>
<path d="M511.015 134.787H492.244C489.846 134.787 487.996 132.869 487.996 130.54V109.371C487.996 106.973 489.914 105.123 492.244 105.123H511.015C513.413 105.123 515.262 107.041 515.262 109.371V130.54C515.331 132.869 513.413 134.787 511.015 134.787Z" fill="#838ECC"/>
<path d="M511.015 105.055H507.863C510.261 105.055 512.111 106.973 512.111 109.302V130.471C512.111 132.869 510.193 134.719 507.863 134.719H511.015C513.412 134.719 515.262 132.801 515.262 130.471V109.302C515.331 106.973 513.412 105.055 511.015 105.055Z" fill="#717CBC"/>
<path d="M444.563 51.6865L439.494 53.0567C438.877 53.1937 438.466 53.8102 438.466 54.5638C438.192 58.4688 438.466 63.1959 439.425 68.7451C441.686 81.8987 447.509 97.6556 456.073 111.837C457.1 113.618 459.155 113.07 459.224 111.015C459.635 94.4357 456.963 77.8567 452.442 65.3197C450.523 60.0445 448.468 55.797 446.276 52.5086C445.796 51.892 445.18 51.5495 444.563 51.6865Z" fill="#F7CD84"/>
<path d="M452.441 65.3195C450.523 60.0444 448.468 55.7968 446.275 52.5084C445.864 51.8234 445.179 51.5493 444.631 51.6864L442.302 52.3029C442.85 53.0565 443.535 53.8786 444.151 54.8377C444.151 54.8377 445.111 56.3449 446.07 57.9891C451.413 67.5118 453.469 76.2809 455.181 83.7483C456.415 89.092 456.894 92.8599 457.785 100.396C458.127 102.999 458.949 110.124 458.059 112.796C458.675 112.59 459.223 111.974 459.223 110.946C459.634 94.5041 456.963 77.9251 452.441 65.3195Z" fill="#F8B461"/>
<path d="M436.135 32.2984C436.135 32.0244 435.861 31.9559 435.656 32.0929C434.08 34.0112 430.312 39.4233 431.477 46.0686C431.614 46.8222 432.915 53.8101 438.19 56.2079C439.903 56.9615 441.205 56.893 441.479 56.893C444.63 56.6874 447.508 53.7416 448.193 50.6587C449.083 46.6852 446.274 42.4377 443.26 40.725C441.753 39.8344 440.383 39.7659 438.601 38.0531C436.82 36.4089 436.341 34.8333 436.272 34.4907C436.067 33.6686 436.067 32.915 436.135 32.2984Z" fill="#6F5A66"/>
<path d="M443.329 40.7252C441.822 39.8346 440.452 39.766 438.67 38.0533C436.889 36.4091 436.41 34.8334 436.341 34.4909C436.136 33.7373 436.136 32.9837 436.136 32.4357C436.136 32.2986 436.067 32.1616 435.93 32.1616C435.793 32.8467 435.656 33.8058 435.862 34.902C435.93 35.313 436.273 36.9572 437.917 38.8754C439.63 40.7937 441 40.9992 442.438 42.0953C445.316 44.1506 447.851 48.8777 446.617 52.9197C446.343 53.7418 446.001 54.4954 445.521 55.249C446.891 54.0843 447.919 52.4401 448.262 50.7274C449.084 46.6854 446.275 42.4379 443.329 40.7252Z" fill="#6B4C5F"/>
<path d="M438.602 38.0532C436.821 36.409 436.341 34.8334 436.273 34.4908C436.067 33.6687 436.067 32.9151 436.067 32.367C436.067 32.093 435.793 32.0245 435.588 32.1615C434.149 33.9427 430.861 38.6698 431.272 44.5615C431.272 44.5615 431.34 45.0411 431.34 45.1781V56.482C431.34 57.1671 431.888 57.7837 432.642 57.7837C433.327 57.7837 433.943 57.2356 433.943 56.482V45.7947C433.943 45.3151 434.354 44.9041 434.834 44.9041C435.314 44.9041 435.725 45.3151 435.725 45.7947V47.7814C435.725 48.3295 436.067 48.8091 436.615 48.8776C437.3 49.0146 437.848 48.4665 437.848 47.7814V47.0278C437.848 46.2057 437.78 44.1505 439.219 43.808C442.37 43.0544 442.438 42.5063 443.124 40.6566C441.753 39.8345 440.452 39.7659 438.602 38.0532Z" fill="#4A62ED"/>
<path d="M512.568 248.511H519.419V145.749H512.568V248.511Z" fill="#409182"/>
<path d="M504.348 248.511H512.569V145.749H504.348V248.511Z" fill="#57A697"/>
<path d="M508.481 225.081H468.746V233.987H508.481V225.081Z" fill="#469184"/>
<path d="M508.481 145.749H468.746V173.152H508.481V145.749Z" fill="#469184"/>
<path opacity="0.34" d="M500.534 158.354H497.246C496.081 158.354 495.19 157.463 495.19 156.299C495.19 155.134 496.081 154.243 497.246 154.243H500.534C501.699 154.243 502.589 155.134 502.589 156.299C502.589 157.395 501.699 158.354 500.534 158.354Z" fill="#57A697"/>
<path opacity="0.34" d="M503.272 164.657H487.378C486.214 164.657 485.323 163.766 485.323 162.602C485.323 161.437 486.214 160.546 487.378 160.546H503.272C504.437 160.546 505.328 161.437 505.328 162.602C505.328 163.766 504.437 164.657 503.272 164.657Z" fill="#57A697"/>
<path opacity="0.34" d="M491.491 158.354H482.105C480.94 158.354 480.05 157.463 480.05 156.299C480.05 155.134 480.94 154.243 482.105 154.243H491.491C492.655 154.243 493.546 155.134 493.546 156.299C493.546 157.395 492.655 158.354 491.491 158.354Z" fill="#57A697"/>
<path d="M472.308 35.8609L469.02 35.3813L464.841 42.7803L474.158 44.1504L472.308 35.8609Z" fill="#C5E1DF"/>
<path d="M461.073 104.712L459.908 104.575C457.647 104.232 456.14 102.177 456.414 99.9164L464.84 42.8489L474.089 44.219L465.663 101.287C465.389 103.479 463.265 105.055 461.073 104.712Z" fill="#F7CD84"/>
<path d="M458.264 104.301C456.962 104.095 456.003 102.862 456.208 101.561L464.909 42.7803L467.307 43.1228L458.264 104.301Z" fill="#F8B461"/>
<path d="M462.717 104.918L471.76 43.7395L474.158 44.082L465.457 102.862C465.252 104.232 464.018 105.123 462.717 104.918Z" fill="#F8B461"/>
<path d="M472.308 35.8608L471.554 32.4354C471.417 31.9559 470.938 31.8188 470.664 32.2984L468.951 35.3128L472.308 35.8608Z" fill="#6F5A66"/>
<path d="M472.307 35.8607L470.731 35.5867L471.759 43.8077L474.157 44.1502L472.307 35.8607Z" fill="#A5CECA"/>
<path d="M411.176 248.511H418.027V145.749H411.176V248.511Z" fill="#409182"/>
<path d="M402.955 248.511H411.176V145.749H402.955V248.511Z" fill="#57A697"/>
<path d="M468.723 248.511H475.574V145.749H468.723V248.511Z" fill="#409182"/>
<path d="M460.502 248.511H468.723V145.749H460.502V248.511Z" fill="#57A697"/>
<path d="M460.524 145.749H414.281V173.152H460.524V145.749Z" fill="#57A697"/>
<path d="M460.524 225.081H414.281V233.987H460.524V225.081Z" fill="#57A697"/>
<path d="M468.746 134.787H396.127V145.748H468.746V134.787Z" fill="#57A697"/>
<path d="M523.553 134.787H468.746V145.748H523.553V134.787Z" fill="#409182"/>
<path d="M460.524 145.749H414.281V149.516H460.524V145.749Z" fill="#469688"/>
<path d="M475.585 145.737V173.141H478.325V145.737H475.585Z" fill="#30695E"/>
<path d="M475.562 225.093V233.999H478.303V225.093H475.562Z" fill="#30695E"/>
<path d="M476.944 149.547H508.458V145.779H476.944V149.547Z" fill="#30695E"/>
<path d="M468.745 145.749H460.524V146.16H468.745V145.749Z" fill="#469688"/>
<path d="M411.199 145.749H402.978V146.16H411.199V145.749Z" fill="#469688"/>
<path d="M439.287 163.903C441.368 163.903 443.054 162.216 443.054 160.135C443.054 158.054 441.368 156.367 439.287 156.367C437.206 156.367 435.519 158.054 435.519 160.135C435.519 162.216 437.206 163.903 439.287 163.903Z" fill="#469688"/>
<path d="M437.369 163.561C439.45 163.561 441.137 161.874 441.137 159.793C441.137 157.711 439.45 156.025 437.369 156.025C435.288 156.025 433.601 157.711 433.601 159.793C433.601 161.874 435.288 163.561 437.369 163.561Z" fill="#633047"/>
<path d="M436.357 159.427C437.148 159.356 437.743 158.779 437.686 158.139C437.629 157.498 436.941 157.036 436.15 157.106C435.359 157.177 434.763 157.754 434.82 158.394C434.878 159.035 435.566 159.497 436.357 159.427Z" fill="#F4CEE1"/>
<path opacity="0.4" d="M457.236 155.477H449.7C448.535 155.477 447.645 154.586 447.645 153.421C447.645 152.257 448.535 151.366 449.7 151.366H457.236C458.4 151.366 459.291 152.257 459.291 153.421C459.291 154.586 458.4 155.477 457.236 155.477Z" fill="#469688"/>
<path opacity="0.4" d="M453.194 161.848H448.125C446.96 161.848 446.069 160.957 446.069 159.793C446.069 158.628 446.96 157.737 448.125 157.737H453.194C454.359 157.737 455.249 158.628 455.249 159.793C455.249 160.957 454.29 161.848 453.194 161.848Z" fill="#469688"/>
<path opacity="0.2" d="M444.014 169.452H419.351C418.187 169.452 417.296 168.562 417.296 167.397C417.296 166.232 418.187 165.342 419.351 165.342H444.014C445.179 165.342 446.069 166.232 446.069 167.397C446.069 168.493 445.179 169.452 444.014 169.452Z" fill="#469688"/>
<path opacity="0.39" d="M430.998 169.452H427.367C426.202 169.452 425.312 168.562 425.312 167.397C425.312 166.232 426.202 165.342 427.367 165.342H430.929C432.094 165.342 432.984 166.232 432.984 167.397C433.053 168.493 432.162 169.452 430.998 169.452Z" fill="#469688"/>
<path opacity="0.4" d="M437.232 155.477H420.105C418.94 155.477 418.05 154.586 418.05 153.421C418.05 152.257 418.94 151.366 420.105 151.366H437.232C438.397 151.366 439.287 152.257 439.287 153.421C439.287 154.586 438.397 155.477 437.232 155.477Z" fill="#469688"/>
<path d="M478.473 134.787H440.109C437.094 134.787 434.628 132.321 434.628 129.307V82.5838C434.628 81.4192 435.519 80.5286 436.683 80.5286H481.899C483.063 80.5286 483.954 81.4192 483.954 82.5838V129.307C483.954 132.321 481.488 134.787 478.473 134.787Z" fill="#7284EC"/>
<path opacity="0.69" d="M472.376 80.5286V129.307C472.376 132.321 469.91 134.787 466.896 134.787H478.542C481.556 134.787 484.023 132.321 484.023 129.307V82.5838C484.023 81.4192 483.132 80.5286 481.967 80.5286H472.376Z" fill="#4654A4"/>
<path d="M428.531 223.437C427.23 223.437 426.134 222.341 426.134 221.039C426.134 219.737 427.23 218.641 428.531 218.641H457.373V216.928H428.531C426.271 216.928 424.421 218.778 424.421 221.039C424.421 223.3 426.271 225.149 428.531 225.149H457.373V223.437H428.531Z" fill="#107865"/>
<path d="M428.531 223.437C427.229 223.437 426.133 222.341 426.133 221.039C426.133 219.737 427.229 218.641 428.531 218.641H456.071V223.437H428.531Z" fill="#F4E1E4"/>
<path opacity="0.2" d="M456.071 218.641H444.425V223.437H456.071V218.641Z" fill="#22443E"/>
<path opacity="0.2" d="M457.373 216.928H444.425V218.573H457.373V216.928Z" fill="#22443E"/>
<path opacity="0.2" d="M457.373 223.437H444.425V225.081H457.373V223.437Z" fill="#22443E"/>
<path d="M323.373 195.143H293.641V187.401C293.641 185.689 295.011 184.319 296.724 184.319H320.29C322.003 184.319 323.373 185.689 323.373 187.401V195.143Z" fill="#F8B461"/>
<path d="M320.29 184.319H317.002C318.715 184.319 320.085 185.689 320.085 187.401V195.143H323.373V187.401C323.373 185.689 322.003 184.319 320.29 184.319Z" fill="#E29C50"/>
<path d="M325.361 249.059H291.723C289.325 249.059 287.476 247.141 287.476 244.812V199.459C287.476 197.061 289.394 195.211 291.723 195.211H325.361C327.759 195.211 329.608 197.13 329.608 199.459V244.743C329.608 247.141 327.69 249.059 325.361 249.059Z" fill="#F7CD84"/>
<path d="M324.606 195.143H318.988C321.797 195.143 323.989 197.404 323.989 200.144V243.99C323.989 246.798 321.729 248.991 318.988 248.991H324.606C327.415 248.991 329.607 246.73 329.607 243.99V200.144C329.607 197.404 327.415 195.143 324.606 195.143Z" fill="#F8B461"/>
<path d="M295.696 209.941H295.148C294.326 209.941 293.641 209.256 293.641 208.434V195.211H297.135V208.434C297.135 209.256 296.518 209.941 295.696 209.941Z" fill="#8190E7"/>
<path d="M300.629 195.143H297.135V199.939H300.629V195.143Z" fill="#8190E7"/>
<path d="M299.19 201.788H298.642C297.82 201.788 297.135 201.103 297.135 200.281V199.116C297.135 198.294 297.82 197.609 298.642 197.609H299.19C300.012 197.609 300.697 198.294 300.697 199.116V200.281C300.697 201.103 300.012 201.788 299.19 201.788Z" fill="#F7CD84"/>
<path d="M302.682 202.062H302.134C301.312 202.062 300.627 201.377 300.627 200.555V195.143H304.121V200.555C304.189 201.377 303.504 202.062 302.682 202.062Z" fill="#8190E7"/>
<path d="M329.607 212.475H287.406V230.425H329.607V212.475Z" fill="#7081E1"/>
<path d="M329.677 212.475H324.333V230.425H329.677V212.475Z" fill="#3C4DAE"/>
<path d="M270.416 249.059C270.416 246.593 272.403 244.538 274.938 244.538C277.472 244.538 279.459 246.524 279.459 249.059H270.416Z" fill="#8190E7"/>
<path d="M277.13 249.059C277.13 247.826 278.158 246.798 279.391 246.798C280.624 246.798 281.651 247.826 281.651 249.059H277.13Z" fill="#445BE0"/>
</svg>
