<svg width="1000" height="166" viewBox="0 0 1000 166" fill="none" xmlns="http://www.w3.org/2000/svg">
<path opacity="0.69" d="M939.127 130H60.7828C54.8522 130 50 125.05 50 119C50 112.95 54.8522 108 60.7828 108H939.217C945.148 108 950 112.95 950 119C949.91 125.05 945.148 130 939.127 130Z" fill="#23273D"/>
<path d="M151.463 50.198H112.463V40.0437C112.463 37.7972 114.26 36 116.507 36H147.419C149.665 36 151.463 37.7972 151.463 40.0437V50.198Z" fill="#F8B461"/>
<path d="M147.419 36H143.105C145.352 36 147.149 37.7972 147.149 40.0437V50.198H151.463V40.0437C151.463 37.7972 149.665 36 147.419 36Z" fill="#E29C50"/>
<path d="M154.069 120.919H109.947C106.802 120.919 104.376 118.402 104.376 115.347V55.8592C104.376 52.7141 106.892 50.2878 109.947 50.2878H154.069C157.214 50.2878 159.64 52.804 159.64 55.8592V115.257C159.64 118.402 157.124 120.919 154.069 120.919Z" fill="#F7CD84"/>
<path d="M153.081 50.198H145.712C149.396 50.198 152.272 53.1635 152.272 56.7579V114.269C152.272 117.953 149.306 120.829 145.712 120.829H153.081C156.765 120.829 159.64 117.863 159.64 114.269V56.7579C159.64 53.1635 156.765 50.198 153.081 50.198Z" fill="#F8B461"/>
<path d="M115.159 69.6079H114.44C113.361 69.6079 112.463 68.7093 112.463 67.631V50.2878H117.046V67.631C117.046 68.7093 116.237 69.6079 115.159 69.6079Z" fill="#81E7AF"/>
<path d="M121.629 50.198H117.046V56.4883H121.629V50.198Z" fill="#81E7AF"/>
<path d="M119.742 58.9144H119.023C117.945 58.9144 117.046 58.0157 117.046 56.9374V55.4098C117.046 54.3315 117.945 53.4329 119.023 53.4329H119.742C120.82 53.4329 121.719 54.3315 121.719 55.4098V56.9374C121.719 58.0157 120.82 58.9144 119.742 58.9144Z" fill="#F7CD84"/>
<path d="M124.323 59.274H123.604C122.526 59.274 121.627 58.3754 121.627 57.297V50.198H126.21V57.297C126.3 58.3754 125.401 59.274 124.323 59.274Z" fill="#81E7AF"/>
<path d="M159.639 72.9326H104.285V96.4761H159.639V72.9326Z" fill="#70E1A3"/>
<path d="M159.73 72.9326H152.721V96.4761H159.73V72.9326Z" fill="#3CAE6F"/>
<path d="M82 120.919C82 117.684 84.606 114.988 87.9308 114.988C91.2557 114.988 93.8616 117.594 93.8616 120.919H82Z" fill="#81E7AF"/>
<path d="M90.8066 120.919C90.8066 119.301 92.1545 117.953 93.772 117.953C95.3895 117.953 96.7375 119.301 96.7375 120.919H90.8066Z" fill="#44E08A"/>
<path d="M403.463 50.198H364.463V40.0437C364.463 37.7972 366.26 36 368.507 36H399.419C401.665 36 403.463 37.7972 403.463 40.0437V50.198Z" fill="#F8B461"/>
<path d="M399.419 36H395.105C397.352 36 399.149 37.7972 399.149 40.0437V50.198H403.463V40.0437C403.463 37.7972 401.665 36 399.419 36Z" fill="#E29C50"/>
<path d="M406.069 120.919H361.947C358.802 120.919 356.376 118.402 356.376 115.347V55.8592C356.376 52.7141 358.892 50.2878 361.947 50.2878H406.069C409.214 50.2878 411.64 52.804 411.64 55.8592V115.257C411.64 118.402 409.124 120.919 406.069 120.919Z" fill="#F7CD84"/>
<path d="M405.081 50.198H397.712C401.396 50.198 404.272 53.1635 404.272 56.7579V114.269C404.272 117.953 401.306 120.829 397.712 120.829H405.081C408.765 120.829 411.64 117.863 411.64 114.269V56.7579C411.64 53.1635 408.765 50.198 405.081 50.198Z" fill="#F8B461"/>
<path d="M367.159 69.6079H366.44C365.361 69.6079 364.463 68.7093 364.463 67.631V50.2878H369.046V67.631C369.046 68.7093 368.237 69.6079 367.159 69.6079Z" fill="#8190E7"/>
<path d="M373.629 50.198H369.046V56.4883H373.629V50.198Z" fill="#8190E7"/>
<path d="M371.742 58.9144H371.023C369.945 58.9144 369.046 58.0157 369.046 56.9374V55.4098C369.046 54.3315 369.945 53.4329 371.023 53.4329H371.742C372.82 53.4329 373.719 54.3315 373.719 55.4098V56.9374C373.719 58.0157 372.82 58.9144 371.742 58.9144Z" fill="#F7CD84"/>
<path d="M376.323 59.274H375.604C374.526 59.274 373.627 58.3754 373.627 57.297V50.198H378.21V57.297C378.3 58.3754 377.401 59.274 376.323 59.274Z" fill="#8190E7"/>
<path d="M411.639 72.9326H356.285V96.4761H411.639V72.9326Z" fill="#7081E1"/>
<path d="M411.73 72.9326H404.721V96.4761H411.73V72.9326Z" fill="#3C4DAE"/>
<path d="M334 120.919C334 117.684 336.606 114.988 339.931 114.988C343.256 114.988 345.862 117.594 345.862 120.919H334Z" fill="#8190E7"/>
<path d="M342.807 120.919C342.807 119.301 344.155 117.953 345.772 117.953C347.39 117.953 348.737 119.301 348.737 120.919H342.807Z" fill="#445BE0"/>
<path d="M655.463 50.198H616.463V40.0437C616.463 37.7972 618.26 36 620.507 36H651.419C653.665 36 655.463 37.7972 655.463 40.0437V50.198Z" fill="#F8B461"/>
<path d="M651.419 36H647.105C649.352 36 651.149 37.7972 651.149 40.0437V50.198H655.463V40.0437C655.463 37.7972 653.665 36 651.419 36Z" fill="#E29C50"/>
<path d="M658.069 120.919H613.947C610.802 120.919 608.376 118.402 608.376 115.347V55.8592C608.376 52.7141 610.892 50.2878 613.947 50.2878H658.069C661.214 50.2878 663.64 52.804 663.64 55.8592V115.257C663.64 118.402 661.124 120.919 658.069 120.919Z" fill="#F7CD84"/>
<path d="M657.081 50.198H649.712C653.396 50.198 656.272 53.1635 656.272 56.7579V114.269C656.272 117.953 653.306 120.829 649.712 120.829H657.081C660.765 120.829 663.64 117.863 663.64 114.269V56.7579C663.64 53.1635 660.765 50.198 657.081 50.198Z" fill="#F8B461"/>
<path d="M619.159 69.6079H618.44C617.361 69.6079 616.463 68.7093 616.463 67.631V50.2878H621.046V67.631C621.046 68.7093 620.237 69.6079 619.159 69.6079Z" fill="#E781DE"/>
<path d="M625.629 50.198H621.046V56.4883H625.629V50.198Z" fill="#E781DE"/>
<path d="M623.742 58.9144H623.023C621.945 58.9144 621.046 58.0157 621.046 56.9374V55.4098C621.046 54.3315 621.945 53.4329 623.023 53.4329H623.742C624.82 53.4329 625.719 54.3315 625.719 55.4098V56.9374C625.719 58.0157 624.82 58.9144 623.742 58.9144Z" fill="#F7CD84"/>
<path d="M628.323 59.274H627.604C626.526 59.274 625.627 58.3754 625.627 57.297V50.198H630.21V57.297C630.3 58.3754 629.401 59.274 628.323 59.274Z" fill="#E781DE"/>
<path d="M663.639 72.9326H608.285V96.4761H663.639V72.9326Z" fill="#E170D8"/>
<path d="M663.73 72.9326H656.721V96.4761H663.73V72.9326Z" fill="#AE3CA5"/>
<path d="M586 120.919C586 117.684 588.606 114.988 591.931 114.988C595.256 114.988 597.862 117.594 597.862 120.919H586Z" fill="#E781DE"/>
<path d="M594.807 120.919C594.807 119.301 596.155 117.953 597.772 117.953C599.39 117.953 600.737 119.301 600.737 120.919H594.807Z" fill="#E044D3"/>
<path d="M907.463 50.198H868.463V40.0437C868.463 37.7972 870.26 36 872.507 36H903.419C905.665 36 907.463 37.7972 907.463 40.0437V50.198Z" fill="#F8B461"/>
<path d="M903.419 36H899.105C901.352 36 903.149 37.7972 903.149 40.0437V50.198H907.463V40.0437C907.463 37.7972 905.665 36 903.419 36Z" fill="#E29C50"/>
<path d="M910.069 120.919H865.947C862.802 120.919 860.376 118.402 860.376 115.347V55.8592C860.376 52.7141 862.892 50.2878 865.947 50.2878H910.069C913.214 50.2878 915.64 52.804 915.64 55.8592V115.257C915.64 118.402 913.124 120.919 910.069 120.919Z" fill="#F7CD84"/>
<path d="M909.081 50.198H901.712C905.396 50.198 908.272 53.1635 908.272 56.7579V114.269C908.272 117.953 905.306 120.829 901.712 120.829H909.081C912.765 120.829 915.64 117.863 915.64 114.269V56.7579C915.64 53.1635 912.765 50.198 909.081 50.198Z" fill="#F8B461"/>
<path d="M871.159 69.6079H870.44C869.361 69.6079 868.463 68.7093 868.463 67.631V50.2878H873.046V67.631C873.046 68.7093 872.237 69.6079 871.159 69.6079Z" fill="#E78182"/>
<path d="M877.629 50.198H873.046V56.4883H877.629V50.198Z" fill="#E78182"/>
<path d="M875.742 58.9144H875.023C873.945 58.9144 873.046 58.0157 873.046 56.9374V55.4098C873.046 54.3315 873.945 53.4329 875.023 53.4329H875.742C876.82 53.4329 877.719 54.3315 877.719 55.4098V56.9374C877.719 58.0157 876.82 58.9144 875.742 58.9144Z" fill="#F7CD84"/>
<path d="M880.323 59.274H879.604C878.526 59.274 877.627 58.3754 877.627 57.297V50.198H882.21V57.297C882.3 58.3754 881.401 59.274 880.323 59.274Z" fill="#E78182"/>
<path d="M915.639 72.9326H860.285V96.4761H915.639V72.9326Z" fill="#E17072"/>
<path d="M915.73 72.9326H908.721V96.4761H915.73V72.9326Z" fill="#AE3C3D"/>
<path d="M838 120.919C838 117.684 840.606 114.988 843.931 114.988C847.256 114.988 849.862 117.594 849.862 120.919H838Z" fill="#E78182"/>
<path d="M846.807 120.919C846.807 119.301 848.155 117.953 849.772 117.953C851.39 117.953 852.737 119.301 852.737 120.919H846.807Z" fill="#E04447"/>
</svg>
