<svg width="197" height="150" viewBox="0 0 197 150" fill="none" xmlns="http://www.w3.org/2000/svg">
<path opacity="0.69" d="M144.139 109H52.7956C48.508 109 45 105.4 45 101C45 96.6 48.508 93 52.7956 93H144.204C148.492 93 152 96.6 152 101C151.935 105.4 148.492 109 144.139 109Z" fill="#23273D"/>
<path d="M116.952 51.2709H88.7393V43.9253C88.7393 42.3001 90.0394 41 91.6645 41H114.027C115.652 41 116.952 42.3001 116.952 43.9253V51.2709Z" fill="#F8B461"/>
<path d="M114.027 41H110.906C112.531 41 113.832 42.3001 113.832 43.9253V51.2709H116.952V43.9253C116.952 42.3001 115.652 41 114.027 41Z" fill="#E29C50"/>
<path d="M118.837 102.43H86.919C84.6438 102.43 82.8887 100.61 82.8887 98.4001V55.3663C82.8887 53.0911 84.7088 51.3359 86.919 51.3359H118.837C121.112 51.3359 122.867 53.1561 122.867 55.3663V98.3351C122.867 100.61 121.047 102.43 118.837 102.43Z" fill="#F7CD84"/>
<path d="M118.122 51.271H112.792C115.457 51.271 117.537 53.4162 117.537 56.0164V97.6201C117.537 100.285 115.392 102.366 112.792 102.366H118.122C120.788 102.366 122.868 100.22 122.868 97.6201V56.0164C122.868 53.4162 120.788 51.271 118.122 51.271Z" fill="#F8B461"/>
<path d="M90.6894 65.3122H90.1694C89.3893 65.3122 88.7393 64.6621 88.7393 63.882V51.3359H92.0546V63.882C92.0546 64.6621 91.4695 65.3122 90.6894 65.3122Z" fill="#8190E7"/>
<path d="M95.37 51.271H92.0547V55.8214H95.37V51.271Z" fill="#8190E7"/>
<path d="M94.0049 57.5764H93.4848C92.7047 57.5764 92.0547 56.9264 92.0547 56.1463V55.0412C92.0547 54.2611 92.7047 53.6111 93.4848 53.6111H94.0049C94.7849 53.6111 95.435 54.2611 95.435 55.0412V56.1463C95.435 56.9264 94.7849 57.5764 94.0049 57.5764Z" fill="#F7CD84"/>
<path d="M97.3183 57.8366H96.7983C96.0182 57.8366 95.3682 57.1865 95.3682 56.4065V51.271H98.6835V56.4065C98.7485 57.1865 98.0984 57.8366 97.3183 57.8366Z" fill="#8190E7"/>
<path d="M122.867 67.7173H82.8232V84.7488H122.867V67.7173Z" fill="#7081E1"/>
<path d="M122.932 67.7173H117.861V84.7488H122.932V67.7173Z" fill="#3C4DAE"/>
<path d="M66.7021 102.43C66.7021 100.09 68.5873 98.14 70.9925 98.14C73.3977 98.14 75.2829 100.025 75.2829 102.43H66.7021Z" fill="#8190E7"/>
<path d="M73.0732 102.43C73.0732 101.26 74.0483 100.285 75.2184 100.285C76.3885 100.285 77.3636 101.26 77.3636 102.43H73.0732Z" fill="#445BE0"/>
</svg>
