<svg width="287" height="150" viewBox="0 0 287 150" fill="none" xmlns="http://www.w3.org/2000/svg">
<path opacity="0.69" d="M189.139 109H97.7956C93.508 109 90 105.4 90 101C90 96.6 93.508 93 97.7956 93H189.204C193.492 93 197 96.6 197 101C196.935 105.4 193.492 109 189.139 109Z" fill="#23273D"/>
<path d="M161.952 51.2709H133.739V43.9253C133.739 42.3001 135.039 41 136.665 41H159.027C160.652 41 161.952 42.3001 161.952 43.9253V51.2709Z" fill="#F8B461"/>
<path d="M159.027 41H155.906C157.531 41 158.832 42.3001 158.832 43.9253V51.2709H161.952V43.9253C161.952 42.3001 160.652 41 159.027 41Z" fill="#E29C50"/>
<path d="M163.837 102.43H131.919C129.644 102.43 127.889 100.61 127.889 98.4001V55.3663C127.889 53.0911 129.709 51.3359 131.919 51.3359H163.837C166.112 51.3359 167.867 53.1561 167.867 55.3663V98.3351C167.867 100.61 166.047 102.43 163.837 102.43Z" fill="#F7CD84"/>
<path d="M163.122 51.271H157.792C160.457 51.271 162.537 53.4162 162.537 56.0164V97.6201C162.537 100.285 160.392 102.366 157.792 102.366H163.122C165.788 102.366 167.868 100.22 167.868 97.6201V56.0164C167.868 53.4162 165.788 51.271 163.122 51.271Z" fill="#F8B461"/>
<path d="M135.689 65.3122H135.169C134.389 65.3122 133.739 64.6621 133.739 63.882V51.3359H137.055V63.882C137.055 64.6621 136.47 65.3122 135.689 65.3122Z" fill="#8190E7"/>
<path d="M140.37 51.271H137.055V55.8214H140.37V51.271Z" fill="#8190E7"/>
<path d="M139.005 57.5764H138.485C137.705 57.5764 137.055 56.9264 137.055 56.1463V55.0412C137.055 54.2611 137.705 53.6111 138.485 53.6111H139.005C139.785 53.6111 140.435 54.2611 140.435 55.0412V56.1463C140.435 56.9264 139.785 57.5764 139.005 57.5764Z" fill="#F7CD84"/>
<path d="M142.318 57.8366H141.798C141.018 57.8366 140.368 57.1865 140.368 56.4065V51.271H143.683V56.4065C143.748 57.1865 143.098 57.8366 142.318 57.8366Z" fill="#8190E7"/>
<path d="M167.867 67.7173H127.823V84.7488H167.867V67.7173Z" fill="#7081E1"/>
<path d="M167.932 67.7173H162.861V84.7488H167.932V67.7173Z" fill="#3C4DAE"/>
<path d="M111.702 102.43C111.702 100.09 113.587 98.14 115.993 98.14C118.398 98.14 120.283 100.025 120.283 102.43H111.702Z" fill="#8190E7"/>
<path d="M118.073 102.43C118.073 101.26 119.048 100.285 120.218 100.285C121.389 100.285 122.364 101.26 122.364 102.43H118.073Z" fill="#445BE0"/>
</svg>
