<svg width="800" height="800" viewBox="0 0 800 800" fill="none" xmlns="http://www.w3.org/2000/svg">
<path opacity="0.5" d="M158.695 390.975H134.253C121.313 390.975 110.889 380.551 110.889 367.611C110.889 354.671 121.313 344.247 134.253 344.247H158.695C171.635 344.247 182.059 354.671 182.059 367.611C182.059 380.461 171.635 390.975 158.695 390.975Z" fill="#ABB0CD"/>
<path opacity="0.5" fill-rule="evenodd" clip-rule="evenodd" d="M505.378 248.455H646.37C659.22 248.455 669.734 258.969 669.824 271.819C669.824 284.759 659.4 295.183 646.46 295.183H560.823C547.919 295.183 537.459 305.644 537.459 318.547C537.459 331.451 547.919 341.911 560.823 341.911H581.491C594.431 341.911 604.854 352.335 604.854 365.275C604.854 378.215 594.431 388.638 581.491 388.638H498.279C485.376 388.638 474.916 399.099 474.916 412.002C474.916 424.906 485.376 435.366 498.279 435.366H514.095C527.035 435.366 537.459 445.79 537.459 458.73C537.459 471.67 527.035 482.094 514.095 482.094H471.321C458.418 482.094 447.957 492.554 447.957 505.458C447.957 518.361 458.418 528.821 471.321 528.821H559.834C572.774 528.821 583.198 539.245 583.198 552.185C583.198 565.125 572.774 575.549 559.834 575.549H210.724C197.785 575.549 187.361 565.125 187.361 552.185C187.361 539.245 197.785 528.821 210.724 528.821H306.606V482.094H238.312C225.372 482.094 214.948 471.67 214.948 458.73C214.948 445.79 225.372 435.366 238.312 435.366H306.606V388.638H218.003C205.063 388.638 194.639 378.215 194.639 365.275C194.639 352.335 205.063 341.911 218.003 341.911H230.314C243.217 341.911 253.678 331.451 253.678 318.547C253.678 305.644 243.217 295.183 230.314 295.183H153.034C140.094 295.183 129.67 284.759 129.67 271.819C129.67 258.879 140.094 248.455 153.034 248.455H311.998C324.901 248.455 335.362 237.996 335.362 225.092C335.362 212.188 324.901 201.728 311.998 201.728H263.473C250.533 201.728 240.109 191.304 240.109 178.364C240.109 165.424 250.533 155 263.473 155H535.931C548.871 155 559.295 165.424 559.295 178.364C559.295 191.304 548.871 201.728 535.931 201.728H505.378C492.475 201.728 482.015 212.188 482.015 225.092C482.015 237.996 492.475 248.455 505.378 248.455ZM349.47 341.911H449.934C462.784 341.911 473.298 331.487 473.208 318.547C473.208 305.607 462.784 295.183 449.844 295.183H349.47C336.53 295.183 326.106 305.607 326.106 318.547C326.106 331.487 336.53 341.911 349.47 341.911Z" fill="#9199C8"/>
<path opacity="0.69" d="M711.127 646H88.7828C82.8522 646 78 641.05 78 635C78 628.95 82.8522 624 88.7828 624H711.217C717.148 624 722 628.95 722 635C721.91 641.05 717.148 646 711.127 646Z" fill="#23273D"/>
<path d="M223.844 505.368H206.591V490.451C206.591 485.059 210.994 480.656 216.386 480.656H223.934V505.368H223.844Z" fill="#777EA8"/>
<path d="M474.107 505.368H456.854V490.451C456.854 485.059 461.257 480.656 466.648 480.656H474.197V505.368H474.107Z" fill="#777EA8"/>
<path d="M366.723 208.377H332.486V266.337H366.723V208.377Z" fill="#777EA8"/>
<path d="M361.06 208.377H326.823V266.337H361.06V208.377Z" fill="#A0A5C1"/>
<path opacity="0.82" d="M361.06 259.598H326.823V265.439H361.06V259.598Z" fill="#656EA2"/>
<path opacity="0.82" d="M366.724 259.598H361.062V265.439H366.724V259.598Z" fill="#656EA2"/>
<path d="M391.884 265.439H314.334V302.102H391.884V265.439Z" fill="#777EA8"/>
<path d="M285.219 612.661L339.765 462.773L307.325 450.912L248.376 612.661H285.219Z" fill="#6E76A3"/>
<path d="M271.11 612.661L325.655 462.773L293.126 450.912L234.267 612.661H271.11Z" fill="#A0A5C1"/>
<path opacity="0.82" d="M305.616 455.495L293.126 450.912L269.312 516.42H320.174L339.763 462.773L307.324 450.912L305.616 455.495Z" fill="#656EA2"/>
<path d="M257.451 612.661H206.859V636.025H257.451V612.661Z" fill="#A0A5C1"/>
<path d="M301.664 612.661H251.072V636.025H301.664V612.661Z" fill="#7E85AD"/>
<path d="M307.864 529.001L296.632 559.733H391.525V529.001H307.864Z" fill="#9299C0"/>
<path opacity="0.87" d="M307.864 529.001L296.632 559.733H302.742L313.975 529.001H307.864Z" fill="#656EA2"/>
<path d="M448.047 612.661L389.098 450.912L356.658 462.773L411.204 612.661H448.047Z" fill="#6E76A3"/>
<path d="M437.623 612.661L378.764 450.912L346.324 462.773L400.87 612.661H437.623Z" fill="#A0A5C1"/>
<path opacity="0.82" d="M389.098 450.912L379.932 454.237L378.764 450.912L346.324 462.773L365.824 516.42H413.001L389.098 450.912Z" fill="#656EA2"/>
<path d="M474.107 505.368H206.591V490.451C206.591 485.059 210.994 480.656 216.386 480.656H474.197V505.368H474.107Z" fill="#A0A5C1"/>
<path d="M458.291 302.102H242.266V480.656H458.291V302.102Z" fill="#777EA8"/>
<path d="M444.632 302.102H228.606V480.656H444.632V302.102Z" fill="#E8EAF7"/>
<path d="M429.267 612.661H378.675V636.025H429.267V612.661Z" fill="#A0A5C1"/>
<path d="M473.566 612.661H422.975V636.025H473.566V612.661Z" fill="#7E85AD"/>
<path d="M379.124 265.439H301.574V302.102H379.124V265.439Z" fill="#A0A5C1"/>
<path opacity="0.82" d="M345.876 293.026C350.987 293.026 355.131 288.883 355.131 283.771C355.131 278.659 350.987 274.515 345.876 274.515C340.764 274.515 336.62 278.659 336.62 283.771C336.62 288.883 340.764 293.026 345.876 293.026Z" fill="#656EA2"/>
<path d="M343.449 293.026C348.56 293.026 352.705 288.883 352.705 283.771C352.705 278.659 348.56 274.515 343.449 274.515C338.337 274.515 334.193 278.659 334.193 283.771C334.193 288.883 338.337 293.026 343.449 293.026Z" fill="#858EBE"/>
<path d="M651.583 447.048H626.332V443.274C626.332 441.027 628.129 439.23 630.376 439.23H647.449C649.696 439.23 651.493 441.027 651.493 443.274V447.048H651.583Z" fill="#96628A"/>
<path d="M648.976 439.14H646.19C647.628 439.14 648.796 440.129 648.796 441.387V446.958H651.582V441.387C651.582 440.129 650.414 439.14 648.976 439.14Z" fill="#84517A"/>
<path d="M651.223 486.047H626.601C623.456 486.047 621.029 483.531 621.029 480.476V452.709C621.029 449.564 623.545 447.138 626.601 447.138H651.223C654.368 447.138 656.794 449.654 656.794 452.709V480.476C656.884 483.531 654.368 486.047 651.223 486.047Z" fill="#838ECC"/>
<path d="M651.223 447.048H647.089C650.234 447.048 652.66 449.564 652.66 452.619V480.386C652.66 483.532 650.144 485.958 647.089 485.958H651.223C654.368 485.958 656.794 483.442 656.794 480.386V452.619C656.884 449.564 654.368 447.048 651.223 447.048Z" fill="#717CBC"/>
<path d="M564.058 377.046L557.409 378.844C556.6 379.023 556.061 379.832 556.061 380.82C555.701 385.943 556.061 392.143 557.319 399.422C560.284 416.675 567.922 437.343 579.155 455.944C580.503 458.281 583.199 457.562 583.289 454.866C583.828 433.119 580.323 411.373 574.392 394.929C571.876 388.009 569.181 382.438 566.305 378.125C565.676 377.316 564.867 376.867 564.058 377.046Z" fill="#F7CD84"/>
<path d="M574.391 394.928C571.875 388.009 569.179 382.438 566.304 378.124C565.765 377.226 564.866 376.866 564.147 377.046L561.092 377.855C561.811 378.843 562.709 379.922 563.518 381.18C563.518 381.18 564.776 383.157 566.034 385.313C573.043 397.804 575.739 409.306 577.986 419.101C579.603 426.11 580.232 431.053 581.4 440.937C581.85 444.352 582.928 453.698 581.76 457.202C582.569 456.932 583.287 456.124 583.287 454.776C583.827 433.209 580.322 411.463 574.391 394.928Z" fill="#F8B461"/>
<path d="M553.004 351.616C553.004 351.256 552.645 351.166 552.375 351.346C550.308 353.862 545.366 360.961 546.894 369.678C547.073 370.666 548.781 379.832 555.7 382.977C557.947 383.965 559.654 383.876 560.013 383.876C564.147 383.606 567.921 379.742 568.82 375.698C569.988 370.486 566.304 364.915 562.35 362.668C560.373 361.5 558.576 361.41 556.239 359.164C553.903 357.007 553.274 354.94 553.184 354.491C552.914 353.413 552.914 352.424 553.004 351.616Z" fill="#6F5A66"/>
<path d="M562.44 362.668C560.463 361.5 558.666 361.41 556.33 359.164C553.993 357.007 553.364 354.94 553.274 354.491C553.005 353.503 553.005 352.514 553.005 351.795C553.005 351.616 552.915 351.436 552.735 351.436C552.555 352.334 552.376 353.592 552.645 355.03C552.735 355.569 553.184 357.726 555.341 360.242C557.588 362.758 559.385 363.028 561.272 364.466C565.046 367.161 568.371 373.362 566.753 378.664C566.394 379.742 565.945 380.73 565.316 381.719C567.113 380.191 568.461 378.035 568.91 375.788C569.988 370.486 566.304 364.915 562.44 362.668Z" fill="#6B4C5F"/>
<path d="M556.24 359.164C553.903 357.007 553.274 354.941 553.184 354.491C552.915 353.413 552.915 352.424 552.915 351.706C552.915 351.346 552.555 351.256 552.286 351.436C550.399 353.772 546.085 359.973 546.624 367.701C546.624 367.701 546.714 368.33 546.714 368.51V383.337C546.714 384.235 547.433 385.044 548.422 385.044C549.32 385.044 550.129 384.325 550.129 383.337V369.318C550.129 368.689 550.668 368.15 551.297 368.15C551.926 368.15 552.465 368.689 552.465 369.318V371.924C552.465 372.643 552.915 373.272 553.634 373.362C554.532 373.542 555.251 372.823 555.251 371.924V370.936C555.251 369.857 555.161 367.162 557.048 366.712C561.182 365.724 561.272 365.005 562.17 362.579C560.373 361.5 558.666 361.41 556.24 359.164Z" fill="#4A62ED"/>
<path d="M653.26 635.217H662.246V500.425H653.26V635.217Z" fill="#409182"/>
<path d="M642.477 635.217H653.26V500.425H642.477V635.217Z" fill="#57A697"/>
<path d="M647.899 604.484H595.779V616.166H647.899V604.484Z" fill="#469184"/>
<path d="M647.899 500.425H595.779V536.37H647.899V500.425Z" fill="#469184"/>
<path opacity="0.34" d="M637.474 516.96H633.161C631.633 516.96 630.465 515.791 630.465 514.264C630.465 512.736 631.633 511.568 633.161 511.568H637.474C639.002 511.568 640.17 512.736 640.17 514.264C640.17 515.702 639.002 516.96 637.474 516.96Z" fill="#57A697"/>
<path opacity="0.34" d="M641.067 525.227H620.219C618.692 525.227 617.523 524.059 617.523 522.531C617.523 521.004 618.692 519.835 620.219 519.835H641.067C642.595 519.835 643.763 521.004 643.763 522.531C643.763 524.059 642.595 525.227 641.067 525.227Z" fill="#57A697"/>
<path opacity="0.34" d="M625.613 516.96H613.302C611.775 516.96 610.606 515.791 610.606 514.264C610.606 512.736 611.775 511.568 613.302 511.568H625.613C627.141 511.568 628.309 512.736 628.309 514.264C628.309 515.702 627.141 516.96 625.613 516.96Z" fill="#57A697"/>
<path d="M600.451 356.288L596.138 355.659L590.656 365.364L602.877 367.162L600.451 356.288Z" fill="#C5E1DF"/>
<path d="M585.714 446.599L584.187 446.419C581.221 445.97 579.244 443.274 579.604 440.308L590.657 365.454L602.788 367.251L591.735 442.106C591.375 444.981 588.59 447.048 585.714 446.599Z" fill="#F7CD84"/>
<path d="M582.03 446.059C580.323 445.79 579.065 444.172 579.334 442.465L590.747 365.364L593.892 365.814L582.03 446.059Z" fill="#F8B461"/>
<path d="M587.871 446.868L599.733 366.622L602.878 367.072L591.466 444.172C591.196 445.97 589.578 447.138 587.871 446.868Z" fill="#F8B461"/>
<path d="M600.452 356.288L599.464 351.795C599.284 351.166 598.655 350.987 598.295 351.616L596.049 355.569L600.452 356.288Z" fill="#6F5A66"/>
<path d="M600.452 356.288L598.385 355.929L599.733 366.712L602.878 367.161L600.452 356.288Z" fill="#A5CECA"/>
<path d="M520.266 635.217H529.252V500.425H520.266V635.217Z" fill="#409182"/>
<path d="M509.482 635.217H520.266V500.425H509.482V635.217Z" fill="#57A697"/>
<path d="M595.749 635.217H604.735V500.425H595.749V635.217Z" fill="#409182"/>
<path d="M584.966 635.217H595.749V500.425H584.966V635.217Z" fill="#57A697"/>
<path d="M584.996 500.425H524.34V536.37H584.996V500.425Z" fill="#57A697"/>
<path d="M584.996 604.484H524.34V616.166H584.996V604.484Z" fill="#57A697"/>
<path d="M595.779 486.048H500.526V500.425H595.779V486.048Z" fill="#57A697"/>
<path d="M667.668 486.048H595.779V500.425H667.668V486.048Z" fill="#409182"/>
<path d="M584.996 500.425H524.34V505.368H584.996V500.425Z" fill="#469688"/>
<path d="M604.75 500.411V536.355H608.344V500.411H604.75Z" fill="#30695E"/>
<path d="M604.721 604.499V616.181H608.315V604.499H604.721Z" fill="#30695E"/>
<path d="M606.532 505.408H647.868V500.466H606.532V505.408Z" fill="#30695E"/>
<path d="M595.779 500.425H584.996V500.964H595.779V500.425Z" fill="#469688"/>
<path d="M520.296 500.425H509.513V500.964H520.296V500.425Z" fill="#469688"/>
<path d="M557.139 524.238C559.869 524.238 562.081 522.026 562.081 519.296C562.081 516.566 559.869 514.354 557.139 514.354C554.41 514.354 552.196 516.566 552.196 519.296C552.196 522.026 554.41 524.238 557.139 524.238Z" fill="#469688"/>
<path d="M554.621 523.789C557.351 523.789 559.563 521.577 559.563 518.847C559.563 516.117 557.351 513.904 554.621 513.904C551.892 513.904 549.679 516.117 549.679 518.847C549.679 521.577 551.892 523.789 554.621 523.789Z" fill="#633047"/>
<path d="M553.296 518.367C554.334 518.274 555.115 517.518 555.039 516.678C554.965 515.837 554.062 515.231 553.025 515.323C551.987 515.416 551.206 516.172 551.28 517.013C551.356 517.853 552.258 518.459 553.296 518.367Z" fill="#F4CEE1"/>
<path opacity="0.4" d="M580.681 513.185H570.796C569.269 513.185 568.101 512.017 568.101 510.49C568.101 508.962 569.269 507.794 570.796 507.794H580.681C582.209 507.794 583.377 508.962 583.377 510.49C583.377 512.017 582.209 513.185 580.681 513.185Z" fill="#469688"/>
<path opacity="0.4" d="M575.38 521.543H568.73C567.202 521.543 566.034 520.374 566.034 518.847C566.034 517.319 567.202 516.151 568.73 516.151H575.38C576.907 516.151 578.076 517.319 578.076 518.847C578.076 520.374 576.818 521.543 575.38 521.543Z" fill="#469688"/>
<path opacity="0.2" d="M563.339 531.517H530.989C529.461 531.517 528.293 530.349 528.293 528.821C528.293 527.294 529.461 526.126 530.989 526.126H563.339C564.866 526.126 566.035 527.294 566.035 528.821C566.035 530.259 564.866 531.517 563.339 531.517Z" fill="#469688"/>
<path opacity="0.39" d="M546.265 531.517H541.502C539.975 531.517 538.807 530.349 538.807 528.821C538.807 527.294 539.975 526.126 541.502 526.126H546.175C547.703 526.126 548.871 527.294 548.871 528.821C548.961 530.259 547.793 531.517 546.265 531.517Z" fill="#469688"/>
<path opacity="0.4" d="M554.443 513.185H531.978C530.45 513.185 529.282 512.017 529.282 510.49C529.282 508.962 530.45 507.794 531.978 507.794H554.443C555.971 507.794 557.139 508.962 557.139 510.49C557.139 512.017 555.971 513.185 554.443 513.185Z" fill="#469688"/>
<path d="M608.537 486.048H558.215C554.261 486.048 551.026 482.813 551.026 478.859V417.574C551.026 416.046 552.195 414.878 553.722 414.878H613.03C614.558 414.878 615.726 416.046 615.726 417.574V478.859C615.726 482.813 612.491 486.048 608.537 486.048Z" fill="#7284EC"/>
<path opacity="0.69" d="M600.541 414.878V478.859C600.541 482.813 597.306 486.048 593.353 486.048H608.629C612.583 486.048 615.818 482.813 615.818 478.859V417.574C615.818 416.046 614.65 414.878 613.122 414.878H600.541Z" fill="#4654A4"/>
<path d="M543.03 602.327C541.323 602.327 539.885 600.89 539.885 599.182C539.885 597.475 541.323 596.037 543.03 596.037H580.862V593.791H543.03C540.065 593.791 537.639 596.217 537.639 599.182C537.639 602.148 540.065 604.574 543.03 604.574H580.862V602.327H543.03Z" fill="#107865"/>
<path d="M543.031 602.327C541.324 602.327 539.886 600.89 539.886 599.182C539.886 597.475 541.324 596.037 543.031 596.037H579.155V602.327H543.031Z" fill="#F4E1E4"/>
<path opacity="0.2" d="M579.154 596.037H563.878V602.327H579.154V596.037Z" fill="#22443E"/>
<path opacity="0.2" d="M580.862 593.791H563.878V595.947H580.862V593.791Z" fill="#22443E"/>
<path opacity="0.2" d="M580.862 602.328H563.878V604.484H580.862V602.328Z" fill="#22443E"/>
<path d="M174.241 565.215H135.241V555.061C135.241 552.814 137.038 551.017 139.285 551.017H170.197C172.444 551.017 174.241 552.814 174.241 555.061V565.215Z" fill="#F8B461"/>
<path d="M170.197 551.017H165.884C168.13 551.017 169.928 552.814 169.928 555.061V565.215H174.241V555.061C174.241 552.814 172.444 551.017 170.197 551.017Z" fill="#E29C50"/>
<path d="M176.847 635.936H132.726C129.581 635.936 127.154 633.419 127.154 630.364V570.876C127.154 567.731 129.67 565.305 132.726 565.305H176.847C179.993 565.305 182.419 567.821 182.419 570.876V630.274C182.419 633.419 179.903 635.936 176.847 635.936Z" fill="#F7CD84"/>
<path d="M175.859 565.215H168.49C172.175 565.215 175.05 568.181 175.05 571.775V629.286C175.05 632.97 172.085 635.846 168.49 635.846H175.859C179.543 635.846 182.419 632.881 182.419 629.286V571.775C182.419 568.181 179.543 565.215 175.859 565.215Z" fill="#F8B461"/>
<path d="M137.937 584.625H137.218C136.14 584.625 135.241 583.726 135.241 582.648V565.305H139.824V582.648C139.824 583.726 139.015 584.625 137.937 584.625Z" fill="#8190E7"/>
<path d="M144.407 565.215H139.824V571.505H144.407V565.215Z" fill="#8190E7"/>
<path d="M142.52 573.932H141.801C140.723 573.932 139.824 573.033 139.824 571.955V570.427C139.824 569.349 140.723 568.45 141.801 568.45H142.52C143.598 568.45 144.497 569.349 144.497 570.427V571.955C144.497 573.033 143.598 573.932 142.52 573.932Z" fill="#F7CD84"/>
<path d="M147.101 574.291H146.382C145.304 574.291 144.405 573.393 144.405 572.314V565.215H148.988V572.314C149.078 573.393 148.179 574.291 147.101 574.291Z" fill="#8190E7"/>
<path d="M182.418 587.95H127.063V611.493H182.418V587.95Z" fill="#7081E1"/>
<path d="M182.508 587.95H175.499V611.493H182.508V587.95Z" fill="#3C4DAE"/>
<path d="M104.778 635.936C104.778 632.701 107.384 630.005 110.709 630.005C114.034 630.005 116.64 632.611 116.64 635.936H104.778Z" fill="#8190E7"/>
<path d="M113.585 635.936C113.585 634.318 114.933 632.97 116.55 632.97C118.168 632.97 119.516 634.318 119.516 635.936H113.585Z" fill="#445BE0"/>
</svg>
