<svg width="24" height="24" viewBox="0 0 24 24" fill="none" xmlns="http://www.w3.org/2000/svg">
<mask id="mask0_269_2818" style="mask-type:alpha" maskUnits="userSpaceOnUse" x="0" y="0" width="24" height="24">
<rect width="24" height="24" fill="#D9D9D9"/>
</mask>
<g mask="url(#mask0_269_2818)">
<path d="M9 22V16H4V7C4 5.9 4.39167 4.95833 5.175 4.175C5.95833 3.39167 6.9 3 8 3H20V16H15V22H9ZM6 10H18V5H17V9H15V5H14V7H12V5H8C7.45 5 6.97917 5.19583 6.5875 5.5875C6.19583 5.97917 6 6.45 6 7V10ZM6 14H18V12H6V14Z" fill="white"/>
</g>
</svg>
