<svg width="24" height="24" viewBox="0 0 24 24" fill="none" xmlns="http://www.w3.org/2000/svg">
<mask id="mask0_351_2292" style="mask-type:alpha" maskUnits="userSpaceOnUse" x="0" y="0" width="24" height="24">
<rect width="24" height="24" fill="#D9D9D9"/>
</mask>
<g mask="url(#mask0_351_2292)">
<mask id="mask1_351_2292" style="mask-type:alpha" maskUnits="userSpaceOnUse" x="0" y="0" width="24" height="24">
<rect width="24" height="24" fill="#D9D9D9"/>
</mask>
<g mask="url(#mask1_351_2292)">
<path d="M5 21C4.45 21 3.97917 20.8042 3.5875 20.4125C3.19583 20.0208 3 19.55 3 19V15H5V19H9V21H5ZM19 21H15V19H19V15H21V19C21 19.55 20.8042 20.0208 20.4125 20.4125C20.0208 20.8042 19.55 21 19 21ZM3 5C3 4.45 3.19583 3.97917 3.5875 3.5875C3.97917 3.19583 4.45 3 5 3H9V5H5V9H3V5ZM21 5V9H19V5H15V3H19C19.55 3 20.0208 3.19583 20.4125 3.5875C20.8042 3.97917 21 4.45 21 5ZM12 18C12.35 18 12.6458 17.8792 12.8875 17.6375C13.1292 17.3958 13.25 17.1 13.25 16.75C13.25 16.4 13.1292 16.1042 12.8875 15.8625C12.6458 15.6208 12.35 15.5 12 15.5C11.65 15.5 11.3542 15.6208 11.1125 15.8625C10.8708 16.1042 10.75 16.4 10.75 16.75C10.75 17.1 10.8708 17.3958 11.1125 17.6375C11.3542 17.8792 11.65 18 12 18ZM11.1 14.175H12.925C12.925 13.6083 12.9917 13.175 13.125 12.875C13.2583 12.575 13.55 12.2 14 11.75C14.5833 11.1667 14.9708 10.6958 15.1625 10.3375C15.3542 9.97917 15.45 9.55 15.45 9.05C15.45 8.15 15.125 7.41667 14.475 6.85C13.825 6.28333 13 6 12 6C11.1667 6 10.45 6.21667 9.85 6.65C9.25 7.08333 8.81667 7.7 8.55 8.5L10.2 9.175C10.3167 8.74167 10.5375 8.3875 10.8625 8.1125C11.1875 7.8375 11.5667 7.7 12 7.7C12.4833 7.7 12.8708 7.82917 13.1625 8.0875C13.4542 8.34583 13.6 8.69167 13.6 9.125C13.6 9.45833 13.5208 9.77083 13.3625 10.0625C13.2042 10.3542 12.9333 10.6583 12.55 10.975C12 11.4583 11.6208 11.925 11.4125 12.375C11.2042 12.825 11.1 13.425 11.1 14.175Z" fill="#1CEAC5"/>
</g>
</g>
</svg>
