<svg width="24" height="24" viewBox="0 0 24 24" fill="none" xmlns="http://www.w3.org/2000/svg">
<mask id="mask0_269_1554" style="mask-type:alpha" maskUnits="userSpaceOnUse" x="0" y="0" width="24" height="24">
<rect width="24" height="24" fill="#D9D9D9"/>
</mask>
<g mask="url(#mask0_269_1554)">
<path d="M19.9999 13.1C19.9999 13.7 19.9332 14.275 19.7999 14.825C19.6666 15.375 19.4832 15.9 19.2499 16.4L17.6999 14.9C17.7999 14.6167 17.8749 14.3292 17.9249 14.0375C17.9749 13.7458 17.9999 13.4333 17.9999 13.1C17.9999 12.3167 17.8541 11.575 17.5624 10.875C17.2707 10.175 16.8332 9.55 16.2499 9L11.9999 4.8L9.7999 6.95L8.3999 5.55L11.9999 2L17.6499 7.55C18.3832 8.25 18.9582 9.07917 19.3749 10.0375C19.7916 10.9958 19.9999 12.0167 19.9999 13.1ZM19.7999 22.6L16.6999 19.5C16.0166 19.9833 15.2832 20.3542 14.4999 20.6125C13.7166 20.8708 12.8832 21 11.9999 21C9.78324 21 7.89574 20.2292 6.3374 18.6875C4.77907 17.1458 3.9999 15.2833 3.9999 13.1C3.9999 12.25 4.13324 11.4333 4.3999 10.65C4.66657 9.86667 5.06657 9.11667 5.5999 8.4L1.3999 4.2L2.7999 2.8L21.1999 21.2L19.7999 22.6ZM11.9999 19C12.5999 19 13.1707 18.9167 13.7124 18.75C14.2541 18.5833 14.7666 18.35 15.2499 18.05L6.9999 9.85C6.6499 10.3833 6.39574 10.9167 6.2374 11.45C6.07907 11.9833 5.9999 12.5333 5.9999 13.1C5.9999 14.7333 6.58324 16.125 7.7499 17.275C8.91657 18.425 10.3332 19 11.9999 19Z" fill="#1CEAC5"/>
</g>
</svg>
