<svg width="24" height="24" viewBox="0 0 24 24" fill="none" xmlns="http://www.w3.org/2000/svg">
<mask id="mask0_269_1548" style="mask-type:alpha" maskUnits="userSpaceOnUse" x="0" y="0" width="24" height="24">
<rect width="24" height="24" fill="#D9D9D9"/>
</mask>
<g mask="url(#mask0_269_1548)">
<path d="M12.0002 23.3L8.6502 20H4.0002V15.35L0.700195 12L4.0002 8.64995V3.99995H8.6502L12.0002 0.699951L15.3502 3.99995H20.0002V8.64995L23.3002 12L20.0002 15.35V20H15.3502L12.0002 23.3ZM12.0002 17C13.3835 17 14.5627 16.5125 15.5377 15.5375C16.5127 14.5625 17.0002 13.3833 17.0002 12C17.0002 10.6166 16.5127 9.43745 15.5377 8.46245C14.5627 7.48745 13.3835 6.99995 12.0002 6.99995C10.6169 6.99995 9.4377 7.48745 8.4627 8.46245C7.4877 9.43745 7.0002 10.6166 7.0002 12C7.0002 13.3833 7.4877 14.5625 8.4627 15.5375C9.4377 16.5125 10.6169 17 12.0002 17ZM12.0002 20.5L14.5002 18H18.0002V14.5L20.5002 12L18.0002 9.49995V5.99995H14.5002L12.0002 3.49995L9.5002 5.99995H6.0002V9.49995L3.5002 12L6.0002 14.5V18H9.5002L12.0002 20.5Z" fill="#1CEAC5"/>
</g>
</svg>
