<svg width="24" height="24" viewBox="0 0 24 24" fill="none" xmlns="http://www.w3.org/2000/svg">
<mask id="mask0_269_2817" style="mask-type:alpha" maskUnits="userSpaceOnUse" x="0" y="0" width="24" height="24">
<rect width="24" height="24" fill="#D9D9D9"/>
</mask>
<g mask="url(#mask0_269_2817)">
<path d="M9.8252 21.675L1.3252 13.175L8.2502 6.275L5.6002 3.625L7.1502 2L18.3252 13.175L9.8252 21.675ZM9.8252 7.85L4.4752 13.2H15.1752L9.8252 7.85ZM19.8002 21C19.2002 21 18.6919 20.7875 18.2752 20.3625C17.8585 19.9375 17.6502 19.4167 17.6502 18.8C17.6502 18.35 17.7627 17.925 17.9877 17.525C18.2127 17.125 18.4669 16.7333 18.7502 16.35L19.8002 15L20.9002 16.35C21.1669 16.7333 21.4169 17.125 21.6502 17.525C21.8835 17.925 22.0002 18.35 22.0002 18.8C22.0002 19.4167 21.7835 19.9375 21.3502 20.3625C20.9169 20.7875 20.4002 21 19.8002 21Z" fill="white"/>
</g>
</svg>
